<svg width="892" height="501" viewBox="0 0 892 501" fill="none" xmlns="http://www.w3.org/2000/svg">
<g clip-path="url(#clip0_5_200)">
<path d="M654.047 351.25C560.1 311.436 475.105 312.949 395.047 337.25C271.695 315.707 187.228 319.04 133.047 351.25V251.25H654.047V351.25Z" fill="#CBCBCB"/>
<path d="M654.047 323.75C567.495 284.533 481.048 282.001 393.297 323.75C303.419 297.872 216.533 298.142 132.547 323.75V19.75C221.841 -6.90096 308.701 -6.26052 393.297 19.75C482.659 -6.17068 569.653 -6.99276 654.047 19.75V323.75Z" fill="#8E7A6B"/>
<path d="M156.002 57.4761L153.091 50.0244C154.232 49.5786 181.499 39.0376 221.515 33.6606C258.511 28.6884 313.63 27.5014 366.127 50.0752L362.967 57.4248C312.226 35.6064 258.736 36.7553 222.798 41.56C183.681 46.791 156.275 57.3696 156.002 57.4761Z" fill="white"/>
<path d="M156.002 85.4761L153.091 78.0244C154.232 77.5786 181.499 67.0376 221.515 61.6606C258.511 56.689 313.63 55.5019 366.127 78.0752L362.967 85.4248C312.226 63.6064 258.736 64.7544 222.798 69.5601C183.681 74.791 156.275 85.3696 156.002 85.4761Z" fill="white"/>
<path d="M156.002 113.476L153.091 106.024C154.232 105.579 181.499 95.0376 221.515 89.6606C258.511 84.6885 313.63 83.5014 366.127 106.075L362.967 113.425C312.226 91.6064 258.736 92.7544 222.798 97.5601C183.681 102.791 156.275 113.37 156.002 113.476Z" fill="white"/>
<path d="M156.002 141.476L153.091 134.024C154.232 133.579 181.499 123.038 221.515 117.661C258.511 112.689 313.63 111.501 366.127 134.075L362.967 141.425C312.226 119.606 258.736 120.755 222.798 125.56C183.681 130.791 156.275 141.37 156.002 141.476Z" fill="white"/>
<path d="M156.002 169.476L153.091 162.024C154.232 161.579 181.499 151.038 221.515 145.661C258.511 140.688 313.63 139.501 366.127 162.075L362.967 169.425C312.226 147.606 258.736 148.755 222.798 153.56C183.681 158.791 156.275 169.37 156.002 169.476Z" fill="white"/>
<path d="M156.002 197.476L153.091 190.024C154.232 189.579 181.499 179.038 221.515 173.661C258.511 168.689 313.63 167.501 366.127 190.075L362.967 197.425C312.226 175.606 258.736 176.755 222.798 181.56C183.681 186.791 156.275 197.37 156.002 197.476Z" fill="white"/>
<path d="M417.002 256.476L414.091 249.024C415.232 248.579 442.499 238.038 482.515 232.661C519.511 227.689 574.63 226.501 627.127 249.075L623.967 256.425C573.226 234.606 519.736 235.755 483.798 240.56C444.681 245.791 417.275 256.37 417.002 256.476Z" fill="#413831"/>
<path d="M414.547 202.739V49.8091L417.355 48.9321C488.498 26.709 559.296 26.7134 627.782 48.9453L630.547 49.8427V202.535L625.135 200.492C553.865 173.594 484.875 173.578 420.079 200.445L414.547 202.739ZM520.11 172.289C553.596 172.289 587.741 178.53 622.547 191.014V55.6699C557.433 35.1352 490.17 35.1465 422.547 55.7026V190.828C453.619 178.587 486.715 172.298 520.11 172.289V172.289Z" fill="white"/>
<path d="M622.713 252.514L623.761 227.062L659.707 155.593C660.721 153.561 662.373 151.918 664.411 150.916C665.659 150.294 667.018 149.927 668.41 149.836C669.801 149.745 671.197 149.932 672.515 150.387C674.042 150.914 675.427 151.786 676.561 152.935C677.696 154.085 678.549 155.481 679.055 157.015C679.272 157.677 679.424 158.359 679.51 159.05C679.766 161.102 679.403 163.184 678.468 165.029L642.473 236.595L622.713 252.514Z" fill="#413831"/>
<path d="M668.888 150.315L629.868 227.895L626.893 226.399L664.632 151.365C665.955 150.703 667.409 150.344 668.888 150.315Z" fill="#3F3D56"/>
<path d="M679.014 159.114L641.482 233.737L638.507 232.24L677.446 154.821C677.925 155.552 678.306 156.342 678.58 157.172C678.787 157.803 678.932 158.454 679.014 159.114V159.114Z" fill="#3F3D56"/>
<path d="M675.278 152.455L635.827 230.892L632.852 229.396L672.352 150.86C672.773 151.004 673.184 151.177 673.581 151.377C674.181 151.68 674.749 152.041 675.278 152.455V152.455Z" fill="#3F3D56"/>
<path d="M627.226 248.237L623.256 251.434L623.589 243.005C624.952 243.478 626.428 245.53 627.226 248.237Z" fill="#3F3D56"/>
<path d="M235.674 340.104L230.922 325.688L235.985 278.287C236.124 276.941 236.701 275.679 237.628 274.692C238.193 274.084 238.875 273.594 239.632 273.251C240.389 272.909 241.207 272.721 242.037 272.698C242.999 272.671 243.954 272.867 244.828 273.271C245.702 273.674 246.471 274.274 247.075 275.023C247.335 275.347 247.563 275.695 247.755 276.063C248.328 277.154 248.562 278.391 248.428 279.616L243.358 327.082L235.674 340.104Z" fill="#413831"/>
<path d="M239.999 273.418L234.503 324.872L232.53 324.662L237.845 274.896C238.444 274.25 239.18 273.745 239.999 273.418V273.418Z" fill="#3F3D56"/>
<path d="M247.492 276.202L242.206 325.695L240.232 325.484L245.717 274.137C246.137 274.444 246.516 274.805 246.843 275.21C247.091 275.519 247.308 275.852 247.492 276.202V276.202Z" fill="#3F3D56"/>
<path d="M244.012 273.272L238.455 325.294L236.482 325.084L242.045 272.996C242.31 272.988 242.576 272.998 242.839 273.027C243.237 273.07 243.63 273.152 244.012 273.272V273.272Z" fill="#3F3D56"/>
<path d="M237.295 336.772L235.751 339.388L234.169 334.617C235.028 334.595 236.282 335.43 237.295 336.772Z" fill="#3F3D56"/>
<path d="M750.44 323.199C749.898 324.146 749.176 324.977 748.313 325.644C747.451 326.312 746.465 326.803 745.413 327.09C743.288 327.669 741.02 327.38 739.107 326.287C737.195 325.193 735.796 323.385 735.217 321.26C734.638 319.135 734.926 316.866 736.02 314.954C736.038 314.922 736.057 314.889 736.076 314.857C736.308 314.468 736.57 314.097 736.858 313.747L729.872 263.952L729.663 262.46L728.244 252.299L728.034 250.834L728.808 250.871L742.344 251.489L745.973 251.653L746.428 260.923L749.003 313.038C750.348 314.325 751.221 316.026 751.481 317.869C751.742 319.713 751.375 321.59 750.44 323.199H750.44Z" fill="#FFB8B8"/>
<path d="M729.703 262.911L746.891 261.335C747.783 261.25 748.605 260.817 749.178 260.129C749.751 259.441 750.029 258.554 749.951 257.662L746.767 221.919C746.46 218.477 744.798 215.297 742.146 213.08C739.495 210.863 736.071 209.79 732.628 210.098C729.186 210.405 726.006 212.067 723.789 214.719C721.572 217.371 720.499 220.794 720.807 224.237C720.829 224.483 720.858 224.728 720.894 224.973L726.048 260.032C726.166 260.835 726.569 261.569 727.183 262.1C727.797 262.631 728.582 262.924 729.394 262.926C729.497 262.927 729.6 262.923 729.703 262.911V262.911Z" fill="#CBCBCB"/>
<path d="M742.731 234.035C744.47 229.111 744.55 223.753 742.961 218.779C741.371 213.805 738.198 209.487 733.926 206.483C727.445 202.048 718.576 200.456 709.024 211.827C697.465 225.709 689.221 242.042 684.918 259.585L724.034 265.953C724.034 265.953 737.336 249.693 742.731 234.035Z" fill="#CBCBCB"/>
<path d="M679.466 490.206H668.313L663.008 447.189H679.468L679.466 490.206Z" fill="#FFB8B8"/>
<path d="M646.808 500.56H681.858V487.018H660.35C656.758 487.018 653.314 488.445 650.774 490.985C648.234 493.524 646.808 496.969 646.808 500.56V500.56Z" fill="#2F2E41"/>
<path d="M771.156 480.478L760.567 483.979L742.028 444.801L757.656 439.635L771.156 480.478Z" fill="#FFB8B8"/>
<path d="M743.395 500.56L776.675 489.56L772.425 476.702L752.003 483.452C748.593 484.579 745.771 487.015 744.156 490.223C742.542 493.432 742.268 497.15 743.395 500.56V500.56Z" fill="#2F2E41"/>
<path d="M718.176 195.204C730.516 195.204 740.519 185.201 740.519 172.861C740.519 160.522 730.516 150.519 718.176 150.519C705.837 150.519 695.834 160.522 695.834 172.861C695.834 185.201 705.837 195.204 718.176 195.204Z" fill="#FFB8B8"/>
<path d="M698.614 478.232L708.97 409.874C709.081 409.144 709.441 408.476 709.99 407.983C710.539 407.49 711.242 407.202 711.979 407.17C712.716 407.138 713.442 407.363 714.032 407.806C714.621 408.249 715.039 408.884 715.213 409.601L730.985 474.745C731.233 475.743 731.846 476.612 732.702 477.182C733.558 477.751 734.596 477.98 735.613 477.824L779.118 470.832C779.695 470.74 780.246 470.525 780.732 470.202C781.219 469.879 781.631 469.455 781.941 468.96C782.251 468.464 782.451 467.908 782.528 467.329C782.604 466.75 782.556 466.161 782.387 465.602L725.658 278.572C725.497 278.04 725.478 277.476 725.603 276.935L727.491 268.748C727.699 267.86 727.603 266.929 727.219 266.102C726.836 265.275 726.186 264.601 725.375 264.186C717.65 260.245 698.084 252.051 683.319 261.026C682.84 261.319 682.425 261.706 682.1 262.163C681.775 262.621 681.546 263.14 681.428 263.689L637.112 471.977C636.992 472.544 636.993 473.129 637.115 473.695C637.238 474.261 637.479 474.795 637.823 475.261C638.167 475.727 638.605 476.114 639.11 476.398C639.615 476.682 640.174 476.855 640.751 476.907L694.201 481.694C694.322 481.705 694.443 481.71 694.565 481.71C695.543 481.708 696.489 481.357 697.231 480.719C697.973 480.08 698.463 479.198 698.611 478.231L698.614 478.232Z" fill="#2F2E41"/>
<path d="M732.991 157.076C731.307 156.063 729.813 154.764 728.575 153.237C727.964 152.466 727.562 151.55 727.407 150.578C727.252 149.606 727.351 148.611 727.692 147.688C728.821 145.197 732.175 144.413 734.775 145.258C737.375 146.103 739.383 148.144 741.282 150.109C742.955 151.838 744.676 153.65 745.467 155.923C746.257 158.196 745.852 161.079 743.878 162.459C741.941 163.813 739.155 163.259 737.292 161.805C735.533 160.216 734.13 158.272 733.176 156.102L732.991 157.076Z" fill="#2F2E41"/>
<path d="M740.559 150.71C740.683 144.415 747.858 139.9 754.056 141.016C760.253 142.132 765.016 147.416 767.401 153.243C772.439 165.556 768.657 179.605 763.803 191.996C758.949 204.386 752.941 216.956 753.65 230.241C754.129 237.421 756.539 244.339 760.624 250.263C764.71 256.188 770.319 260.899 776.86 263.899C769.867 267.069 761.507 263.794 755.63 258.852C742.578 247.877 737.54 228.336 743.657 212.419C746.675 204.567 751.993 197.85 756.144 190.535C760.296 183.221 763.343 174.6 761.199 166.466C759.054 158.333 749.932 151.749 742.134 154.895L740.559 150.71Z" fill="#2F2E41"/>
<path d="M716.836 182.776C718.784 179.485 720.748 175.164 717.189 172.286C716.415 171.689 715.53 171.253 714.585 171.003C713.639 170.753 712.654 170.695 711.686 170.831C707.672 171.315 703.301 171.514 699.416 170.056C697.959 169.555 696.617 168.765 695.471 167.735C694.325 166.705 693.397 165.456 692.744 164.06C690.742 159.308 693.249 153.534 697.442 150.53C700.007 148.759 703.038 147.785 706.155 147.73C709.271 147.674 712.334 148.541 714.961 150.22C720.391 147.821 726.98 148.888 731.914 152.19C736.848 155.492 740.224 160.78 742.058 166.426C743.748 171.286 744.038 176.523 742.898 181.541C741.98 185.031 740.234 188.249 737.809 190.922C735.384 193.594 732.35 195.643 728.965 196.895C727.647 197.415 726.215 197.58 724.813 197.372C723.41 197.164 722.088 196.592 720.976 195.712C719.17 194.093 717.783 192.059 716.934 189.787C716.192 187.297 715.797 184.534 716.836 182.776Z" fill="#2F2E41"/>
<path d="M650.556 202.712C650.667 203.203 650.74 203.702 650.773 204.204L689.85 226.748L699.348 221.28L709.473 234.536L693.6 245.85C692.317 246.765 690.772 247.238 689.198 247.2C687.623 247.161 686.103 246.613 684.867 245.637L644.568 213.848C642.749 214.522 640.768 214.626 638.888 214.146C637.009 213.666 635.32 212.626 634.046 211.162C632.772 209.699 631.974 207.883 631.758 205.955C631.542 204.027 631.918 202.08 632.836 200.371C633.754 198.662 635.171 197.273 636.897 196.389C638.624 195.505 640.579 195.167 642.502 195.422C644.425 195.676 646.225 196.51 647.663 197.812C649.101 199.114 650.108 200.824 650.55 202.712L650.556 202.712Z" fill="#FFB8B8"/>
<path d="M691.157 227.816L703.787 244.185C704.146 244.65 704.602 245.032 705.122 245.305C705.642 245.579 706.215 245.737 706.802 245.769C707.389 245.802 707.976 245.707 708.523 245.492C709.07 245.277 709.565 244.947 709.973 244.524L724.27 229.677C725.473 228.787 726.488 227.669 727.258 226.386C728.027 225.103 728.537 223.681 728.756 222.202C728.975 220.722 728.9 219.213 728.535 217.762C728.17 216.312 727.523 214.947 726.629 213.747C725.736 212.547 724.615 211.535 723.33 210.769C722.045 210.003 720.622 209.498 719.141 209.283C717.661 209.068 716.152 209.147 714.703 209.516C713.253 209.885 711.89 210.536 710.693 211.433C710.569 211.525 710.447 211.619 710.328 211.716L692.396 221.743C691.883 222.03 691.437 222.425 691.09 222.9C690.743 223.375 690.503 223.919 690.385 224.495C690.267 225.071 690.275 225.666 690.407 226.239C690.54 226.812 690.795 227.35 691.154 227.816H691.157Z" fill="#CBCBCB"/>
<path d="M208.552 488.809L220.675 488.808L226.443 442.047L208.55 442.048L208.552 488.809Z" fill="#A0616A"/>
<path d="M205.459 484.851L229.335 484.85H229.336C233.371 484.85 237.241 486.453 240.094 489.306C242.947 492.16 244.551 496.029 244.551 500.065V500.559L205.46 500.56L205.459 484.851Z" fill="#2F2E41"/>
<path d="M114.156 483.561L126.143 485.373L138.836 439.999L123.121 437.325L114.156 483.561Z" fill="#A0616A"/>
<path d="M111.69 479.185L135.297 482.753L135.298 482.753C139.287 483.357 142.874 485.52 145.269 488.768C147.664 492.016 148.67 496.082 148.067 500.072L147.993 500.56L109.342 494.718L111.69 479.185Z" fill="#2F2E41"/>
<path d="M151.535 257.07L164.996 260.597L164.1 282.421L163.989 322.155C165.316 323.072 166.332 324.37 166.904 325.878C167.477 327.385 167.578 329.031 167.194 330.597C166.811 332.164 165.961 333.576 164.757 334.649C163.554 335.722 162.052 336.404 160.452 336.605C158.853 336.806 157.229 336.517 155.798 335.775C154.366 335.033 153.193 333.875 152.434 332.452C151.675 331.029 151.366 329.41 151.547 327.807C151.729 326.205 152.393 324.696 153.451 323.479L149.314 283.599L151.535 257.07Z" fill="#A0616A"/>
<path d="M149.192 232.073C149.266 229.964 149.946 227.921 151.151 226.188C152.355 224.455 154.034 223.106 155.985 222.301C157.811 221.484 159.836 221.218 161.812 221.536C163.787 221.854 165.627 222.741 167.105 224.09C168.167 225.039 169.01 226.209 169.574 227.517C170.137 228.825 170.409 230.241 170.37 231.665C170.405 244.449 167.519 263.084 167.49 263.271L167.444 263.567L147.769 270.193L149.192 232.073Z" fill="#CBCBCB"/>
<path d="M184.372 268.364L214.466 260.575L228.377 307.425L228.871 481.959L205.858 481.815L196.238 340.552L134.929 471.082L110.207 468.115L164.1 328.191C164.1 328.191 161.134 303.469 170.528 291.108L168.55 278.253L184.372 268.364Z" fill="#2F2E41"/>
<path d="M164.08 280.021C163.66 279.509 163.354 278.913 163.184 278.273C163.015 277.633 162.985 276.964 163.097 276.311L149.37 235.131C148.729 233.206 148.661 231.136 149.174 229.173C149.687 227.21 150.759 225.438 152.259 224.072L158.218 218.656L162.257 202.503L185.467 208.176L183.554 215.825L194.059 213.916L216.184 263.193L169.937 281.679L167.659 281.714C166.974 281.716 166.298 281.564 165.679 281.271C165.06 280.978 164.514 280.551 164.08 280.021V280.021Z" fill="#CBCBCB"/>
<path d="M196.295 245.251L209.557 241.036L220.466 259.959L241.611 293.6C243.222 293.666 244.775 294.22 246.065 295.188C247.354 296.156 248.319 297.493 248.833 299.022C249.346 300.55 249.383 302.199 248.939 303.749C248.495 305.299 247.591 306.678 246.346 307.703C245.101 308.728 243.575 309.351 241.968 309.489C240.362 309.628 238.751 309.276 237.349 308.479C235.947 307.682 234.82 306.479 234.117 305.028C233.414 303.576 233.168 301.946 233.412 300.352L208.599 268.859L196.295 245.251Z" fill="#A0616A"/>
<path d="M180.953 225.376C179.889 223.554 179.372 221.464 179.463 219.356C179.555 217.247 180.252 215.21 181.471 213.488C182.578 211.821 184.148 210.514 185.987 209.727C187.826 208.94 189.855 208.706 191.825 209.055C193.23 209.289 194.567 209.827 195.743 210.632C196.919 211.436 197.906 212.487 198.634 213.712C205.497 224.497 213.019 241.79 213.094 241.963L213.213 242.238L200.126 258.354L180.953 225.376Z" fill="#CBCBCB"/>
<path d="M179.429 199.497C189.614 199.497 197.87 191.241 197.87 181.056C197.87 170.871 189.614 162.615 179.429 162.615C169.244 162.615 160.988 170.871 160.988 181.056C160.988 191.241 169.244 199.497 179.429 199.497Z" fill="#A0616A"/>
<path d="M146.839 173.277C156.65 173.277 164.603 165.324 164.603 155.514C164.603 145.703 156.65 137.75 146.839 137.75C137.029 137.75 129.076 145.703 129.076 155.514C129.076 165.324 137.029 173.277 146.839 173.277Z" fill="#2F2E41"/>
<path d="M131.517 170.223C133.817 171.885 136.48 172.972 139.286 173.393C142.091 173.814 144.957 173.557 147.642 172.644C150.328 171.731 152.756 170.188 154.723 168.144C156.69 166.1 158.139 163.614 158.949 160.896C158.643 163.332 157.835 165.679 156.576 167.787C155.317 169.895 153.634 171.72 151.634 173.145C149.635 174.571 147.361 175.566 144.957 176.068C142.554 176.57 140.072 176.569 137.669 176.064C135.266 175.559 132.993 174.561 130.995 173.133C128.997 171.705 127.317 169.879 126.06 167.769C124.804 165.659 123.998 163.312 123.695 160.875C123.392 158.438 123.597 155.965 124.297 153.611C123.899 156.773 124.36 159.984 125.63 162.907C126.9 165.83 128.934 168.357 131.517 170.223Z" fill="#2F2E41"/>
<path d="M201.62 170.243C198.519 164.691 197.333 162.372 193.334 158.996C189.799 156.01 185.449 155.133 181.941 157.962C177.791 156.169 173.174 155.763 168.775 156.803C164.375 157.843 160.429 160.275 157.521 163.737C154.614 167.198 152.901 171.506 152.636 176.019C152.372 180.532 153.57 185.01 156.054 188.787C158.537 192.565 162.172 195.441 166.42 196.988C170.668 198.535 175.301 198.67 179.632 197.374C183.963 196.078 187.76 193.419 190.46 189.793C193.16 186.167 194.618 181.767 194.617 177.246C194.614 176.452 194.566 175.659 194.474 174.871C197.523 174.442 198.571 170.671 201.62 170.243Z" fill="#2F2E41"/>
<path d="M394.297 19.75H392.297V322.788H394.297V19.75Z" fill="#CBCBCB"/>
</g>
<defs>
<clipPath id="clip0_5_200">
<rect width="892" height="500.75" fill="white"/>
</clipPath>
</defs>
</svg>
