<svg xmlns="http://www.w3.org/2000/svg" width="966" height="619" fill="none" viewBox="0 0 966 619"><path fill="#413831" d="M560.586 177.467C559.702 179.555 558.838 181.695 558.018 183.829L555.872 183.004C556.701 180.846 557.575 178.683 558.468 176.571L560.586 177.467Z"/><path fill="#413831" d="M937.897 329.843C936.788 332.728 935.605 335.612 934.38 338.416L932.273 337.496C934.107 333.297 935.836 328.941 937.389 324.604L939.554 325.381C939.02 326.869 938.468 328.357 937.897 329.843ZM943.837 312.026L941.624 311.399C942.882 306.961 944 302.433 944.948 297.938L947.198 298.413C946.239 302.958 945.109 307.538 943.837 312.026ZM928.34 351.07C926.188 355.208 923.869 359.317 921.447 363.283L919.486 362.084C921.879 358.163 924.172 354.101 926.299 350.009L928.34 351.07ZM949.618 284.601L947.34 284.281C947.978 279.723 948.465 275.083 948.786 270.492L951.08 270.652C950.755 275.297 950.263 279.99 949.618 284.601V284.601ZM913.73 374.993C911.037 378.788 908.175 382.54 905.224 386.143L903.445 384.687C906.363 381.123 909.192 377.414 911.855 373.661L913.73 374.993ZM951.575 256.636L949.276 256.635C949.279 252.033 949.122 247.375 948.811 242.791L951.105 242.636C951.42 247.271 951.578 251.981 951.575 256.636L951.575 256.636ZM895.954 396.696C892.754 400.094 889.399 403.419 885.981 406.579L884.419 404.891C887.798 401.766 891.116 398.478 894.28 395.119L895.954 396.696ZM949.673 228.698L947.395 229.011C946.766 224.451 945.973 219.856 945.035 215.355L947.286 214.886C948.234 219.438 949.037 224.085 949.673 228.698V228.698ZM875.354 415.751C871.72 418.675 867.943 421.508 864.126 424.17L862.811 422.284C866.584 419.652 870.32 416.851 873.914 413.96L875.354 415.751ZM943.96 201.268L941.747 201.889C940.502 197.456 939.09 193.011 937.547 188.677L939.713 187.905C941.274 192.29 942.703 196.785 943.96 201.268V201.268ZM852.349 431.8C848.359 434.196 844.232 436.486 840.082 438.608L839.036 436.56C843.138 434.462 847.219 432.198 851.166 429.828L852.349 431.8ZM934.563 174.86L932.455 175.777C930.619 171.554 928.615 167.34 926.496 163.252L928.538 162.194C930.68 166.328 932.707 170.59 934.563 174.86V174.86ZM827.383 444.562C823.1 446.395 818.7 448.102 814.308 449.638L813.55 447.467C817.893 445.949 822.242 444.26 826.477 442.448L827.383 444.562ZM921.659 149.965L919.695 151.158C917.305 147.228 914.745 143.325 912.086 139.558L913.964 138.233C916.654 142.042 919.242 145.989 921.659 149.965ZM800.922 453.81C796.432 455.044 791.843 456.136 787.285 457.058L786.828 454.804C791.336 453.893 795.873 452.812 800.314 451.593L800.922 453.81ZM905.48 127.052L903.698 128.503C900.788 124.928 897.717 121.411 894.569 118.047L896.248 116.477C899.432 119.879 902.538 123.436 905.48 127.052H905.48ZM773.461 459.366C768.848 459.974 764.155 460.43 759.514 460.719L759.371 458.425C763.96 458.138 768.6 457.688 773.161 457.087L773.461 459.366ZM886.309 106.559L884.743 108.243C881.368 105.102 877.84 102.038 874.257 99.1366L875.704 97.3498C879.328 100.284 882.897 103.382 886.309 106.559V106.559ZM745.514 461.111C740.856 461.081 736.141 460.887 731.5 460.536L731.674 458.243C736.263 458.59 740.923 458.782 745.529 458.812L745.514 461.111ZM864.503 88.9067L863.182 90.7903C859.411 88.1465 855.501 85.602 851.561 83.2264L852.748 81.2579C856.733 83.6605 860.688 86.234 864.503 88.9068L864.503 88.9067ZM717.561 458.993C712.955 458.322 708.312 457.482 703.761 456.495L704.249 454.248C708.748 455.223 713.338 456.055 717.892 456.718L717.561 458.993ZM840.498 74.4348L839.448 76.4802C835.358 74.3825 831.137 72.3968 826.902 70.5766L827.81 68.4647C832.092 70.3043 836.361 72.3131 840.498 74.4348ZM690.166 453.055C685.702 451.762 681.217 450.296 676.837 448.699L677.625 446.538C681.957 448.118 686.391 449.568 690.806 450.847L690.166 453.055ZM813.981 65.5357C809.634 64.0041 805.184 62.6039 800.754 61.3741L801.369 59.159C805.849 60.4023 810.349 61.8181 814.746 63.366L813.981 65.5357ZM787.274 58.1244C782.757 57.2001 778.158 56.4209 773.602 55.8102L773.908 53.5317C778.515 54.149 783.167 54.9364 787.736 55.8722L787.274 58.1244ZM759.804 54.4444C755.214 54.1501 750.556 54.0111 745.96 54.033L745.949 51.7338C750.598 51.7119 755.309 51.852 759.951 52.1506L759.804 54.4444ZM732.117 54.5779C727.524 54.9174 722.888 55.421 718.34 56.0733L718.013 53.7971C722.614 53.1373 727.302 52.6286 731.947 52.285L732.117 54.5779ZM704.694 58.5104C700.187 59.4759 695.661 60.6087 691.245 61.8747L690.611 59.6657C695.077 58.384 699.654 57.2384 704.212 56.2614L704.694 58.5104ZM678.054 66.1512C673.726 67.7184 669.396 69.4555 665.183 71.3146L664.254 69.2113C668.515 67.3309 672.894 65.5742 677.271 63.9885L678.054 66.1512ZM652.692 77.3447C648.611 79.4902 644.556 81.8007 640.639 84.2127L639.433 82.2554C643.394 79.8159 647.496 77.4785 651.622 75.3097L652.692 77.3447ZM629.081 91.8859C625.329 94.569 621.626 97.4119 618.075 100.336L616.612 98.5617C620.204 95.6038 623.949 92.7288 627.745 90.0154L629.081 91.8859ZM607.673 109.524C604.323 112.693 601.044 116.018 597.926 119.406L596.234 117.849C599.388 114.422 602.705 111.059 606.092 107.853L607.673 109.524ZM588.883 129.939C586.007 133.534 583.22 137.275 580.599 141.06L578.708 139.751C581.36 135.923 584.179 132.139 587.087 128.503L588.883 129.939ZM573.101 152.725C570.75 156.678 568.503 160.767 566.423 164.878L564.371 163.839C566.475 159.681 568.747 155.547 571.125 151.55L573.101 152.725Z"/><path fill="#413831" d="M664.454 441.214L663.519 443.314C661.398 442.371 659.282 441.386 657.23 440.388L658.235 438.321C660.264 439.307 662.356 440.281 664.454 441.214Z"/><path fill="#3F3D56" d="M598 266.694H48V617.528H598V266.694Z"/><path fill="#E6E6E6" d="M524.227 617.205C523.963 616.774 517.742 606.387 515.586 584.818C513.607 565.029 514.879 531.673 532.178 485.145C564.95 397.001 524.626 325.882 524.214 325.173L526.203 324.019C526.307 324.199 536.713 342.331 542.859 371.205C550.981 409.485 548.024 449.287 534.334 485.947C501.618 573.941 525.94 615.596 526.19 616.007L524.227 617.205Z"/><path fill="#413831" d="M511.413 319.998C519.667 319.998 526.358 313.306 526.358 305.052C526.358 296.798 519.667 290.107 511.413 290.107C503.158 290.107 496.467 296.798 496.467 305.052C496.467 313.306 503.158 319.998 511.413 319.998Z"/><path fill="#E6E6E6" d="M558.548 375.18C566.802 375.18 573.493 368.489 573.493 360.235C573.493 351.981 566.802 345.29 558.548 345.29C550.294 345.29 543.603 351.981 543.603 360.235C543.603 368.489 550.294 375.18 558.548 375.18Z"/><path fill="#413831" d="M526.358 411.969C534.612 411.969 541.303 405.278 541.303 397.024C541.303 388.77 534.612 382.078 526.358 382.078C518.104 382.078 511.413 388.77 511.413 397.024C511.413 405.278 518.104 411.969 526.358 411.969Z"/><path fill="#413831" d="M565.446 443.009C573.7 443.009 580.391 436.318 580.391 428.064C580.391 419.81 573.7 413.119 565.446 413.119C557.192 413.119 550.5 419.81 550.5 428.064C550.5 436.318 557.192 443.009 565.446 443.009Z"/><path fill="#E6E6E6" d="M514.861 491.294C523.116 491.294 529.807 484.603 529.807 476.349C529.807 468.095 523.116 461.404 514.861 461.404C506.607 461.404 499.916 468.095 499.916 476.349C499.916 484.603 506.607 491.294 514.861 491.294Z"/><path fill="#E6E6E6" d="M533.256 617.755C533.256 617.755 518.31 580.967 563.147 553.375L533.256 617.755Z"/><path fill="#E6E6E6" d="M514.875 617.088C514.875 617.088 508.074 577.966 455.429 578.302L514.875 617.088Z"/><path fill="#413831" d="M365.432 344.985C377.215 350.16 387.961 357.43 397.149 366.442L406.376 357.214C395.565 346.586 382.825 338.119 368.84 332.267L365.432 344.985Z"/><path fill="#413831" d="M222.027 409.844C226.423 396.147 233.561 383.488 243.006 372.638L233.763 363.395C222.721 375.887 214.431 390.563 209.433 406.469L222.027 409.844Z"/><path fill="#E6E6E6" d="M417.648 369.984L408.331 379.301C415.524 389.038 420.992 399.939 424.495 411.527L437.076 408.156C432.97 394.359 426.387 381.424 417.648 369.984V369.984Z"/><path fill="#413831" d="M245.891 351.481L255.149 360.739C266.035 351.635 278.641 344.812 292.217 340.675L288.846 328.094C273.06 332.825 258.431 340.789 245.891 351.481V351.481Z"/><path fill="#413831" d="M217 442.111C217 436.855 217.389 431.607 218.165 426.409L205.531 423.024C202.91 439.263 203.66 455.868 207.735 471.804L220.31 468.435C218.107 459.834 216.995 450.99 217 442.111Z"/><path fill="#E6E6E6" d="M349.122 544.851C340.584 547.02 331.809 548.116 323 548.111C319.737 548.111 316.51 547.955 313.321 547.665L309.911 560.391C324.167 561.962 338.59 560.957 352.491 557.425L349.122 544.851Z"/><path fill="#413831" d="M225.874 484.543L213.156 487.951C219.284 502.595 228.275 515.867 239.603 526.988L248.83 517.76C239.129 508.254 231.336 496.979 225.874 484.543V484.543Z"/><path fill="#E6E6E6" d="M440.739 424.775L428.082 428.166C429.597 439.617 429.235 451.238 427.011 462.573L439.61 465.949C442.358 452.392 442.739 438.462 440.739 424.775H440.739Z"/><path fill="#413831" d="M308.847 337.058C322.366 335.241 336.108 336.043 349.324 339.421L352.693 326.846C337.266 322.903 321.208 322.072 305.456 324.401L308.847 337.058Z"/><path fill="#E6E6E6" d="M296.5 544.757C284.098 541.547 272.384 536.107 261.929 528.703L252.588 538.044C264.75 546.998 278.511 553.544 293.131 557.33L296.5 544.757Z"/><path fill="#E6E6E6" d="M403.299 529.931L394.062 520.694C385.527 528.424 375.793 534.714 365.24 539.321L368.646 552.035C381.391 546.731 393.117 539.252 403.299 529.931V529.931Z"/><path fill="#E6E6E6" d="M422.399 478.937C418.445 489.557 412.815 499.474 405.721 508.311L415 517.59C423.648 507.068 430.422 495.138 435.028 482.321L422.399 478.937Z"/><path fill="#E6E6E6" d="M118 286.611H60V309.611H118V286.611Z"/><path fill="#413831" d="M118 321.611H60V344.611H118V321.611Z"/><path fill="#FFB9B9" d="M410.969 55.7358C410.969 55.7358 417.501 77.1985 413.768 83.7307C410.035 90.2628 420.3 104.26 437.097 97.7281C453.894 91.1959 454.827 83.7307 454.827 83.7307C454.827 83.7307 448.295 73.4659 446.429 52.0031L410.969 55.7358Z"/><path fill="#FFB9B9" d="M325.584 266.164C325.584 266.164 291.99 282.961 306.921 305.357C315.599 318.375 332.16 343.689 344.508 362.606C354.842 378.438 362.767 395.716 368.024 413.877L370.376 422.002L379.708 433.2L399.304 410.804C399.304 410.804 370.376 357.614 370.376 347.349C370.376 337.084 347.047 304.424 347.047 304.424L370.376 289.493C370.376 289.493 344.247 259.632 325.584 266.164Z"/><path fill="#FFB9B9" d="M434.764 324.02C434.764 324.02 435.697 350.149 436.63 360.413C437.4 368.882 429.913 392.593 432.509 418.973C434.094 436.039 433.904 453.224 431.944 470.251L428.232 504.12L456.227 506.92L465.559 430.401C465.559 430.401 471.157 376.277 468.358 358.547L469.291 321.221C469.291 321.221 448.762 313.755 434.764 324.02Z"/><path fill="#2F2E41" d="M384.84 215.307C384.84 215.307 319.519 257.299 318.585 270.363C318.585 270.363 355.912 266.631 356.845 299.291C356.845 299.291 379.241 290.893 384.84 289.026C390.439 287.16 420.3 267.564 420.3 267.564C420.3 267.564 432.431 276.895 432.431 291.826C432.431 306.756 431.498 332.885 432.431 334.751C433.364 336.618 454.827 309.556 472.557 332.885L484.688 268.497C484.688 268.497 488.421 229.304 480.956 226.504L428.699 206.908L384.84 215.307Z"/><path fill="#FFB9B9" d="M424.499 67.4003C439.961 67.4003 452.494 54.8666 452.494 39.4054C452.494 23.9443 439.961 11.4106 424.499 11.4106C409.038 11.4106 396.504 23.9443 396.504 39.4054C396.504 54.8666 409.038 67.4003 424.499 67.4003Z"/><path fill="#D0CDE1" d="M417.501 88.3964C417.501 88.3964 449.077 96.7362 453.352 80.9018C453.352 80.9018 492.154 88.3964 498.686 113.592C505.218 138.787 482.822 199.443 482.822 201.309C482.822 203.175 501.485 214.373 493.087 219.972C484.688 225.571 477.223 219.039 480.956 226.504C484.688 233.97 491.221 235.836 485.622 237.702C480.023 239.569 446.429 210.641 420.3 218.106C394.172 225.571 381.107 219.972 381.107 219.972L369.391 118.713C368.934 114.834 369.455 110.902 370.908 107.276C372.361 103.65 374.698 100.445 377.708 97.9545C383.556 93.1411 391.315 87.9406 398.837 86.5301C413.768 83.7306 414.388 82.1981 414.388 82.1981L417.501 88.3964Z"/><path fill="#FFB9B9" d="M387.639 251.7C387.639 251.7 396.038 299.291 407.236 292.759C418.434 286.227 404.436 251.7 404.436 251.7H387.639Z"/><path fill="#FFB9B9" d="M426.622 257.859C426.622 257.859 412.07 303.942 425.019 303.326C437.969 302.71 441.517 265.623 441.517 265.623L426.622 257.859Z"/><path fill="#2F2E41" d="M375.042 420.136C375.042 420.136 368.51 412.67 364.777 422.935C361.044 433.2 350.78 446.264 350.78 446.264C350.78 446.264 328.384 471.46 344.247 472.393C360.111 473.326 382.507 449.997 382.507 449.997L408.636 425.735C408.636 425.735 399.976 404.644 395.907 404.458C391.839 404.272 392.772 429.467 375.042 420.136Z"/><path fill="#2F2E41" d="M435.697 497.588C435.697 497.588 429.121 499.508 429.61 491.549C429.61 491.549 405.836 504.12 412.368 513.452C418.9 522.784 426.366 532.115 426.366 532.115C426.366 532.115 460.893 551.712 463.692 547.046C466.492 542.38 466.492 533.048 464.625 529.316C462.759 525.583 453.427 519.051 456.227 513.452C459.026 507.853 455.294 492.922 450.628 492.922C445.962 492.922 435.697 497.588 435.697 497.588Z"/><path fill="#2F2E41" d="M400.069 15.6841C400.069 15.6841 409.074 -3.82822 426.335 0.674624C443.596 5.17746 453.352 11.9317 454.103 18.6859C454.853 25.4402 453.727 35.5716 453.727 35.5716C453.727 35.5716 451.851 21.6878 439.844 24.6897C427.836 27.6916 409.074 25.4402 409.074 25.4402L406.072 52.4572C406.072 52.4572 402.695 47.5791 398.943 50.581C395.191 53.5829 388.061 21.6878 400.069 15.6841Z"/><path fill="#D0CDE1" d="M482.822 112.659C482.822 112.659 460.426 173.314 462.292 180.78C464.159 188.245 462.292 189.178 459.493 191.044C456.693 192.911 449.228 212.507 449.228 212.507C449.228 212.507 444.562 223.705 440.83 226.505C437.097 229.304 437.097 236.769 437.097 236.769C437.097 236.769 427.765 246.101 429.632 247.967C431.498 249.834 431.498 252.633 427.765 255.433C424.033 258.232 420.3 261.965 422.166 262.898C424.033 263.831 437.097 274.096 440.83 273.163C444.562 272.229 438.963 268.497 443.629 266.63C448.295 264.764 451.094 261.965 449.228 261.031C447.362 260.098 441.763 260.098 447.362 258.232C452.961 256.366 472.557 244.235 479.089 229.304C485.621 214.373 516.919 124.04 498.004 111.351C498.004 111.351 490.287 101.461 482.822 112.659Z"/><path fill="#D0CDE1" d="M379.241 102.394L378.862 102.552C375.337 104.022 372.224 106.329 369.791 109.273C367.359 112.217 365.68 115.71 364.901 119.449C362.864 129.202 360.859 143.308 362.444 156.517C365.244 179.846 367.11 190.111 370.843 197.576C374.575 205.042 375.508 202.242 374.575 207.841C373.642 213.44 368.976 208.774 373.642 216.24C378.308 223.705 381.107 221.839 379.241 225.571C377.375 229.304 374.575 229.304 378.308 233.97C382.04 238.636 382.04 240.502 382.974 242.368C383.907 244.235 386.706 258.232 386.706 258.232C386.706 258.232 401.637 253.566 410.035 255.433C410.035 255.433 402.57 242.368 404.436 239.569C406.303 236.769 409.102 235.836 406.303 233.037C403.503 230.237 398.837 231.17 403.503 228.371C408.169 225.571 399.771 196.643 399.771 196.643L379.241 102.394Z"/></svg>